<svg width="100" height="33" viewBox="0 0 100 33" fill="none" xmlns="http://www.w3.org/2000/svg">
<path d="M13 11H35.3187V32.1562H13V11ZM38.7352 32.1583H61.0539V11H38.7352V32.1583ZM64.4724 32.1583H86.7911V11H64.4724V32.1583Z" fill="#83889E"/>
<path d="M52.4502 21.0973C52.4502 21.0973 54.3961 20.2637 54.3799 18.0487C54.3799 18.0487 54.6764 14.4219 49.8991 13.9785H44.5977V29.1847H50.675C50.675 29.1847 55.7529 29.201 55.7529 24.8938C55.7509 24.8938 55.8687 21.9657 52.4502 21.0973ZM47.287 16.3467H49.4542C51.7048 16.4652 51.6215 18.1509 51.6215 18.1509C51.6215 20.2453 49.1333 20.28 49.1333 20.28H47.289V16.3467H47.287ZM52.9743 24.6731C52.9743 26.9718 50.1306 26.8349 50.1306 26.8349H47.287V22.6809H50.1306C53.0596 22.6625 52.9743 24.6731 52.9743 24.6731Z" fill="white"/>
<path d="M26.7237 21.0973C26.7237 21.0973 28.6696 20.2637 28.6533 18.0487C28.6533 18.0487 28.9499 14.4219 24.1725 13.9785H18.8711V29.1847H24.9464C24.9464 29.1847 30.0244 29.201 30.0244 24.8938C30.0244 24.8938 30.1422 21.9657 26.7237 21.0973ZM21.5604 16.3467H23.7277C25.9782 16.4652 25.8949 18.1509 25.8949 18.1509C25.8949 20.2453 23.4067 20.28 23.4067 20.28H21.5624V16.3467H21.5604ZM27.2477 24.6731C27.2477 26.9718 24.4041 26.8349 24.4041 26.8349H21.5604V22.6809H24.4041C27.333 22.6625 27.2477 24.6731 27.2477 24.6731Z" fill="white"/>
<path d="M82.2379 15.0721V17.8816C82.2379 17.8816 79.512 16.1959 76.4998 16.1612C76.4998 16.1612 70.8795 16.0508 70.6256 21.58C70.6256 21.58 70.4224 26.6657 76.4307 26.9559C76.4307 26.9559 78.9534 27.2623 82.3719 25.0658V27.9795C82.3719 27.9795 77.7855 30.7216 72.4699 28.6089C72.4699 28.6089 68.0013 26.9661 67.8327 21.58C67.8327 21.58 67.6458 16.0426 73.6053 14.2037C73.6053 14.2037 75.1957 13.5907 78.0577 13.8625C78.0577 13.8625 79.7679 14.0341 82.2379 15.0721Z" fill="white"/>
</svg>
