<svg width="100" height="32" viewBox="0 0 100 32" fill="none" xmlns="http://www.w3.org/2000/svg">
<path fill-rule="evenodd" clip-rule="evenodd" d="M44.7935 11.356V11.3847C44.1399 11.4202 43.6484 12.1123 43.6484 12.7589L43.6521 26.8997C43.6521 31.1241 39.2789 31.9311 38.8569 32L38.8517 31.9708C40.9898 30.4437 41.0449 27.7897 41.0449 27.7897L41.0407 12.7589C41.0407 12.1123 40.5517 11.4202 39.8964 11.3847V11.356H44.7935ZM29.7718 22.1792C29.7718 23.7185 31.0557 25.0496 32.64 25.0496C34.2225 25.0496 35.5111 23.7009 35.5111 22.1609V12.7587C35.5111 12.1121 35.019 11.4198 34.3637 11.3843V11.3564L39.2646 11.3516V11.3843C38.6105 11.4198 38.115 12.1119 38.115 12.7587V21.8948C38.115 24.8353 35.6768 26.5486 32.6529 26.5486C29.6238 26.5486 27.1593 24.8353 27.1593 21.8948L27.1658 12.7587C27.1658 12.1121 26.6715 11.4198 26.0207 11.3843V11.3516H30.9144V11.3843C30.262 11.4234 29.7696 12.1161 29.7696 12.7587L29.7718 22.1792ZM74.8483 22.1792C74.8483 23.7185 76.1321 25.0496 77.717 25.0496C79.298 25.0496 80.5875 23.7009 80.5875 22.1609V12.7587C80.5875 12.1121 80.0951 11.4198 79.4424 11.3843V11.3564L84.3398 11.3516V11.3843C83.6903 11.4198 83.1954 12.1119 83.1954 12.7587V21.8948C83.1954 24.8353 80.7563 26.5486 77.7275 26.5486C74.704 26.5486 72.239 24.8353 72.239 21.8948L72.2426 12.7587C72.2426 12.1121 71.7495 11.4198 71.0953 11.3843V11.3516H75.9937V11.3843C75.3379 11.4234 74.8447 12.1161 74.8447 12.7587L74.8483 22.1792ZM69.8454 13.7498H69.8139C68.9929 12.4269 67.119 12.5863 67.119 12.5863C64.0542 12.5863 64.199 14.9175 64.199 14.9175C64.199 14.9175 63.9883 16.0868 65.5284 16.8847L68.5927 18.5084C71.5507 20.0908 71.2001 22.34 71.2001 22.34C71.2001 22.34 71.3335 26.5417 65.1472 26.5417C65.1472 26.5417 63.3499 26.5964 62.3322 26.2162L61.4616 23.4951H61.492C62.4345 24.8501 65.1725 25.0455 65.1725 25.0455C68.6487 24.8932 68.6726 22.5379 68.6726 22.5379C68.6726 22.5379 68.8291 21.5237 67.4681 20.789L64.4185 19.1661C61.2346 17.4698 61.5993 15.1851 61.5993 15.1851C61.5993 15.1851 61.5241 11.0517 66.9974 11.0517C66.9974 11.0517 69.454 11.1147 69.8456 11.4969L69.8454 13.7498ZM25.7109 13.963H25.6805C25.6462 13.3299 25.0328 12.8525 24.3739 12.8525H19.7486L19.7509 17.4322H24.545V20.0413H24.5134C24.4802 19.4065 23.8674 18.9273 23.2116 18.9273H19.7511L19.7488 24.7565C19.7488 25.4008 20.2432 26.0958 20.8973 26.1324V26.1603H16V26.1324C16.6536 26.0956 17.1437 25.4008 17.1437 24.7565V12.7591C17.1437 12.1125 16.6536 11.4204 16 11.3847V11.3562L25.7064 11.352L25.7109 13.963ZM50.4631 26.1567H45.5735V26.1292C46.2266 26.0907 46.719 25.3963 46.719 24.7508V12.7277C46.719 12.0806 46.2266 11.4177 45.5735 11.3845V11.3566H50.4631V11.3845C49.814 11.4207 49.3193 12.0842 49.3193 12.7277V24.7508C49.3193 25.3963 49.8142 26.0907 50.4631 26.1292V26.1567ZM61.7018 11.3516L60.8878 14.0196H60.8608C60.8416 13.369 60.3088 12.8472 59.6358 12.8472L57.4201 12.8523L57.4165 24.7563C57.4165 25.3959 57.9114 26.0903 58.5695 26.1288V26.1564H53.6659V26.1288C54.319 26.0903 54.8122 25.4006 54.8122 24.7563L54.8104 12.8523H52.1592C52.1592 12.8523 51.1368 12.8658 50.4739 14.0194H50.4447L51.2611 11.3515L61.7018 11.3516ZM45.9354 6.20375C46.4781 6.7349 47.2355 7.06104 48.0625 7.06104C49.7286 7.06104 51.077 5.75043 51.077 4.13039C51.077 2.5151 49.7284 1.20202 48.0625 1.20202C48.0625 1.20202 45.7415 0.987891 44.6971 3.87544L44.7007 1.70812C45.4779 0.718897 46.6814 0 48.0625 0C50.413 0 52.3149 1.84746 52.3149 4.13039C52.3149 6.40972 50.413 8.2642 48.0625 8.2642C46.8883 8.2642 45.8262 7.80385 45.0589 7.05268L43.5964 5.45429C43.1955 5.06494 42.644 4.82803 42.0396 4.82803C40.8216 4.82803 39.8343 5.78498 39.8343 6.96726C39.8343 8.15429 40.8216 9.1137 42.0396 9.1137C42.0396 9.1137 43.6682 9.32613 44.6971 7.36363L44.7007 9.09908C44.0704 9.84266 43.1082 10.3171 42.0396 10.3171C40.1382 10.3171 38.5941 8.81738 38.5941 6.96745C38.5941 5.12094 40.1382 3.62487 42.0396 3.62487C42.9867 3.62487 43.8468 3.99485 44.4714 4.60517L45.9354 6.20375Z" fill="#83889E"/>
</svg>
