<svg width="100" height="33" viewBox="0 0 100 33" fill="none" xmlns="http://www.w3.org/2000/svg">
<path d="M93.2076 26.1421C93.2076 26.8501 93.0442 27.3784 92.7229 27.7378C92.4016 28.0972 91.9223 28.2715 91.2852 28.2715C90.6425 28.2715 90.1578 28.0918 89.8365 27.7378C89.5152 27.3784 89.3518 26.8501 89.3518 26.1421L89.4117 20.5926L82.6096 27.3947C82.1086 27.8957 81.6184 28.1571 81.1392 28.1844C80.6599 28.2116 80.1916 27.9992 79.745 27.5472C79.2875 27.0897 79.0751 26.6213 79.1023 26.1421C79.1296 25.6628 79.391 25.1727 79.8866 24.6717L86.1877 18.3706H81.0738C80.3658 18.3706 79.8376 18.2072 79.4781 17.8859C79.1187 17.5646 78.939 17.0853 78.939 16.4536C78.939 15.8109 79.1187 15.3262 79.4781 15.0049C79.7722 14.7435 80.1807 14.5856 80.7035 14.5366L80.8451 14.5202H81.0303H88.0339H90.8713C93.1804 14.5202 93.1804 16.8294 93.1804 16.8294L93.2076 26.1421ZM16.9139 16.5135C17.3768 15.8708 17.9269 15.3861 18.5695 15.0594C19.2121 14.7326 19.9364 14.5692 20.7316 14.5692C22.0931 14.5692 23.166 14.9614 23.9556 15.751C24.7453 16.5407 25.1374 17.6136 25.1374 18.9751V26.7139C25.1374 27.3838 24.9904 27.8848 24.6963 28.2116C24.4022 28.5438 23.9611 28.7072 23.3675 28.7072C22.7902 28.7072 22.349 28.5384 22.0441 28.2007C21.7391 27.863 21.5866 27.3675 21.5866 26.7139V19.7049C21.5866 19.0622 21.4123 18.5612 21.0583 18.2018C20.7098 17.8423 20.2196 17.6626 19.5933 17.6626C18.8908 17.6626 18.3353 17.8913 17.9214 18.3434C17.5075 18.7954 17.3006 19.4217 17.3006 20.2113V26.7139C17.3006 27.3729 17.1535 27.8739 16.854 28.2061C16.5544 28.5438 16.1133 28.7072 15.5251 28.7072C14.937 28.7072 14.5013 28.5438 14.2126 28.2116C13.924 27.8848 13.777 27.3838 13.777 26.7139V19.7266C13.777 19.0731 13.6081 18.5721 13.2705 18.2181C12.9328 17.8641 12.4481 17.6844 11.8218 17.6844C11.1193 17.6844 10.5638 17.9131 10.1608 18.3651C9.75233 18.8172 9.55083 19.4435 9.55083 20.2331V26.7085C9.55083 27.3675 9.40378 27.8685 9.10425 28.2007C8.81016 28.5384 8.36359 28.7017 7.76997 28.7017C7.18724 28.7017 6.7461 28.5329 6.44657 28.2007C6.15249 27.8685 6 27.3675 6 26.7085V16.7912C6 16.1431 6.14704 15.6421 6.44113 15.2936C6.73522 14.945 7.15456 14.7707 7.69372 14.7707C8.20565 14.7707 8.60321 14.9123 8.89185 15.201C9.18049 15.4896 9.35476 15.9144 9.40923 16.4862C9.88848 15.8436 10.4385 15.3589 11.0539 15.0321C11.6748 14.7054 12.3719 14.542 13.1452 14.542C13.9948 14.542 14.7246 14.6999 15.3236 15.0213C15.9445 15.3371 16.4673 15.8382 16.9139 16.5135ZM35.1582 21.8615C34.5645 22.1447 33.8838 22.3625 33.1213 22.5259L31.9395 22.7764C31.3132 22.9562 30.8721 23.1849 30.6216 23.4572C30.3711 23.7295 30.2458 24.1053 30.2458 24.5791C30.2458 25.091 30.4092 25.4886 30.7414 25.7718C31.0736 26.055 31.5311 26.1966 32.1302 26.1966C33.0451 26.1966 33.7803 25.9188 34.3358 25.3633C34.8913 24.8078 35.1636 24.0671 35.1636 23.1359V21.8615H35.1582ZM38.6055 18.3488V25.9951C38.6055 26.2674 38.6273 26.5832 38.6654 26.9372C38.709 27.2912 38.7253 27.5091 38.7253 27.5907C38.7253 28.021 38.5892 28.3586 38.3169 28.6037C38.0446 28.8488 37.6688 28.9686 37.1786 28.9686C36.5142 28.9686 36.0186 28.7943 35.7028 28.4512C35.3869 28.1027 35.2235 27.5581 35.2126 26.8174C34.7606 27.52 34.1615 28.0537 33.4263 28.4186C32.6911 28.7834 31.8361 28.9686 30.8612 28.9686C29.5705 28.9686 28.5739 28.6037 27.855 27.8685C27.1416 27.1333 26.7821 26.1094 26.7821 24.786C26.7821 23.5498 27.0817 22.6022 27.6862 21.9432C28.2907 21.2897 29.3146 20.805 30.7578 20.5C31.3132 20.3856 32.0158 20.2767 32.8708 20.1732C33.7259 20.0697 34.2813 19.9772 34.5373 19.8955C34.7279 19.8301 34.8695 19.7103 34.9567 19.536C35.0492 19.3618 35.0928 19.1439 35.0928 18.8825C35.0928 18.3379 34.924 17.9512 34.5863 17.7116C34.2487 17.4774 33.6823 17.3576 32.8872 17.3576C32.4733 17.3576 32.0975 17.4175 31.7544 17.5319C31.4113 17.6462 31.1063 17.8151 30.8449 18.0384C30.7523 18.1201 30.6162 18.2617 30.4364 18.4577C29.8646 19.0731 29.3363 19.3835 28.8407 19.3835C28.4268 19.3835 28.0837 19.2419 27.806 18.9587C27.5282 18.6756 27.3921 18.327 27.3921 17.9131C27.3921 17.0145 27.9095 16.2303 28.9442 15.555C29.979 14.8851 31.2533 14.5475 32.7619 14.5475C34.6408 14.5475 36.084 14.8742 37.0861 15.5277C38.1045 16.1758 38.6055 17.118 38.6055 18.3488ZM44.5907 26.7139C44.5907 27.3675 44.4382 27.8631 44.1387 28.1953C43.8392 28.5329 43.398 28.7017 42.8099 28.7017C42.2326 28.7017 41.8023 28.5384 41.5191 28.2061C41.2359 27.8739 41.0943 27.3783 41.0943 26.7085V12.0041C41.0943 11.3288 41.2359 10.8224 41.5191 10.4956C41.8023 10.1634 42.2326 10 42.8099 10C43.3926 10 43.8392 10.1688 44.1387 10.5065C44.4382 10.8441 44.5907 11.3452 44.5907 12.0041V19.8083L48.1633 15.7783C48.5173 15.3644 48.806 15.0975 49.0292 14.9722C49.2525 14.847 49.5031 14.7871 49.7863 14.7871C50.2219 14.7871 50.6086 14.9396 50.9354 15.2391C51.2676 15.5386 51.431 15.8872 51.431 16.2847C51.431 16.6823 51.0933 17.2432 50.418 17.9785L48.5119 20.0044L51.6815 25.4504C51.932 25.8535 52.0954 26.1639 52.1771 26.3708C52.2533 26.5832 52.2969 26.7793 52.2969 26.9699C52.2969 27.4764 52.1335 27.8848 51.8122 28.2061C51.4909 28.5275 51.077 28.6909 50.5705 28.6909C50.1348 28.6909 49.7536 28.5983 49.4377 28.4076C49.1218 28.217 48.8441 27.9175 48.6153 27.5036L45.9577 22.7383L44.5962 24.2142V26.7139H44.5907ZM57.6885 17.5591C58.0534 16.6823 58.5054 16.0015 59.05 15.5114C59.5946 15.0213 60.1719 14.7762 60.7818 14.7762C61.3755 14.7762 61.8438 14.9396 62.1815 15.2718C62.5191 15.604 62.688 16.056 62.688 16.6333C62.688 16.9219 62.6389 17.1779 62.5464 17.4012C62.4538 17.6245 62.3067 17.8205 62.1052 17.9948C61.8765 18.1909 61.4626 18.3052 60.869 18.327C60.5204 18.3434 60.259 18.3706 60.0793 18.4033C59.3768 18.534 58.8485 18.8498 58.489 19.3509C58.1296 19.8519 57.9499 20.5218 57.9499 21.3714V26.7194C57.9499 27.3783 57.7974 27.8739 57.4979 28.2116C57.1983 28.5438 56.7463 28.7126 56.1418 28.7126C55.5482 28.7126 55.1016 28.5438 54.8021 28.2116C54.5025 27.8739 54.35 27.3783 54.35 26.7194V16.8076C54.35 16.1323 54.4971 15.6258 54.7912 15.2881C55.0853 14.9505 55.5155 14.7816 56.0982 14.7816C56.5993 14.7816 56.9914 14.9232 57.2746 15.201C57.5523 15.4787 57.6939 15.8708 57.6939 16.3773V17.5591H57.6885ZM69.5227 17.5863C68.5098 17.5863 67.7256 17.9458 67.1809 18.6701C66.6309 19.389 66.3586 20.4183 66.3586 21.7417C66.3586 23.076 66.6309 24.1053 67.1809 24.835C67.731 25.5648 68.5098 25.9243 69.5227 25.9243C70.5194 25.9243 71.2927 25.5648 71.8428 24.835C72.3928 24.1053 72.6651 23.076 72.6651 21.7417C72.6651 20.4129 72.3928 19.389 71.8428 18.6701C71.2927 17.9458 70.5194 17.5863 69.5227 17.5863ZM69.5227 14.5475C71.6358 14.5475 73.2969 15.1846 74.5113 16.4645C75.7258 17.7443 76.3358 19.4979 76.3358 21.7362C76.3358 23.98 75.7258 25.7445 74.5113 27.0189C73.2969 28.2987 71.6304 28.9359 69.5227 28.9359C67.4042 28.9359 65.7377 28.2987 64.5233 27.0189C63.3088 25.7391 62.7043 23.98 62.7043 21.7362C62.7043 19.5034 63.3088 17.7443 64.5233 16.4645C65.7377 15.1846 67.4042 14.5475 69.5227 14.5475Z" fill="#83889E" stroke="#9B9FB1" stroke-width="6.3561" stroke-miterlimit="2.6131"/>
<path d="M93.2076 26.1421C93.2076 26.8501 93.0442 27.3784 92.7229 27.7378C92.4016 28.0972 91.9223 28.2715 91.2852 28.2715C90.6425 28.2715 90.1578 28.0918 89.8365 27.7378C89.5152 27.3784 89.3518 26.8501 89.3518 26.1421L89.4117 20.5926L82.6096 27.3947C82.1086 27.8957 81.6184 28.1571 81.1392 28.1844C80.6599 28.2116 80.1916 27.9992 79.745 27.5472C79.2875 27.0897 79.0751 26.6213 79.1023 26.1421C79.1296 25.6628 79.391 25.1727 79.8866 24.6717L86.1877 18.3706H81.0738C80.3658 18.3706 79.8376 18.2072 79.4781 17.8859C79.1187 17.5646 78.939 17.0853 78.939 16.4536C78.939 15.8109 79.1187 15.3262 79.4781 15.0049C79.7722 14.7435 80.1807 14.5856 80.7035 14.5366L80.8451 14.5202H81.0303H88.0339H90.8713C93.1804 14.5202 93.1804 16.8294 93.1804 16.8294L93.2076 26.1421ZM16.9139 16.5135C17.3768 15.8708 17.9269 15.3861 18.5695 15.0594C19.2121 14.7326 19.9364 14.5692 20.7316 14.5692C22.0931 14.5692 23.166 14.9614 23.9556 15.751C24.7453 16.5407 25.1374 17.6136 25.1374 18.9751V26.7139C25.1374 27.3838 24.9904 27.8848 24.6963 28.2116C24.4022 28.5438 23.9611 28.7072 23.3675 28.7072C22.7902 28.7072 22.349 28.5384 22.0441 28.2007C21.7391 27.863 21.5866 27.3675 21.5866 26.7139V19.7049C21.5866 19.0622 21.4123 18.5612 21.0583 18.2018C20.7098 17.8423 20.2196 17.6626 19.5933 17.6626C18.8908 17.6626 18.3353 17.8913 17.9214 18.3434C17.5075 18.7954 17.3006 19.4217 17.3006 20.2113V26.7139C17.3006 27.3729 17.1535 27.8739 16.854 28.2061C16.5544 28.5438 16.1133 28.7072 15.5251 28.7072C14.937 28.7072 14.5013 28.5438 14.2126 28.2116C13.924 27.8848 13.777 27.3838 13.777 26.7139V19.7266C13.777 19.0731 13.6081 18.5721 13.2705 18.2181C12.9328 17.8641 12.4481 17.6844 11.8218 17.6844C11.1193 17.6844 10.5638 17.9131 10.1608 18.3651C9.75233 18.8172 9.55083 19.4435 9.55083 20.2331V26.7085C9.55083 27.3675 9.40378 27.8685 9.10425 28.2007C8.81016 28.5384 8.36359 28.7017 7.76997 28.7017C7.18724 28.7017 6.7461 28.5329 6.44657 28.2007C6.15249 27.8685 6 27.3675 6 26.7085V16.7912C6 16.1431 6.14704 15.6421 6.44113 15.2936C6.73522 14.945 7.15456 14.7707 7.69372 14.7707C8.20565 14.7707 8.60321 14.9123 8.89185 15.201C9.18049 15.4896 9.35476 15.9144 9.40923 16.4862C9.88848 15.8436 10.4385 15.3589 11.0539 15.0321C11.6748 14.7054 12.3719 14.542 13.1452 14.542C13.9948 14.542 14.7246 14.6999 15.3236 15.0213C15.9445 15.3371 16.4673 15.8382 16.9139 16.5135ZM35.1582 21.8615C34.5645 22.1447 33.8838 22.3625 33.1213 22.5259L31.9395 22.7764C31.3132 22.9562 30.8721 23.1849 30.6216 23.4572C30.3711 23.7295 30.2458 24.1053 30.2458 24.5791C30.2458 25.091 30.4092 25.4886 30.7414 25.7718C31.0736 26.055 31.5311 26.1966 32.1302 26.1966C33.0451 26.1966 33.7803 25.9188 34.3358 25.3633C34.8913 24.8078 35.1636 24.0671 35.1636 23.1359V21.8615H35.1582ZM38.6055 18.3488V25.9951C38.6055 26.2674 38.6273 26.5832 38.6654 26.9372C38.709 27.2912 38.7253 27.5091 38.7253 27.5907C38.7253 28.021 38.5892 28.3586 38.3169 28.6037C38.0446 28.8488 37.6688 28.9686 37.1786 28.9686C36.5142 28.9686 36.0186 28.7943 35.7028 28.4512C35.3869 28.1027 35.2235 27.5581 35.2126 26.8174C34.7606 27.52 34.1615 28.0537 33.4263 28.4186C32.6911 28.7834 31.8361 28.9686 30.8612 28.9686C29.5705 28.9686 28.5739 28.6037 27.855 27.8685C27.1416 27.1333 26.7821 26.1094 26.7821 24.786C26.7821 23.5498 27.0817 22.6022 27.6862 21.9432C28.2907 21.2897 29.3146 20.805 30.7578 20.5C31.3132 20.3856 32.0158 20.2767 32.8708 20.1732C33.7259 20.0697 34.2813 19.9772 34.5373 19.8955C34.7279 19.8301 34.8695 19.7103 34.9567 19.536C35.0492 19.3618 35.0928 19.1439 35.0928 18.8825C35.0928 18.3379 34.924 17.9512 34.5863 17.7116C34.2487 17.4774 33.6823 17.3576 32.8872 17.3576C32.4733 17.3576 32.0975 17.4175 31.7544 17.5319C31.4113 17.6462 31.1063 17.8151 30.8449 18.0384C30.7523 18.1201 30.6162 18.2617 30.4364 18.4577C29.8646 19.0731 29.3363 19.3835 28.8407 19.3835C28.4268 19.3835 28.0837 19.2419 27.806 18.9587C27.5282 18.6756 27.3921 18.327 27.3921 17.9131C27.3921 17.0145 27.9095 16.2303 28.9442 15.555C29.979 14.8851 31.2533 14.5475 32.7619 14.5475C34.6408 14.5475 36.084 14.8742 37.0861 15.5277C38.1045 16.1758 38.6055 17.118 38.6055 18.3488ZM44.5907 26.7139C44.5907 27.3675 44.4382 27.8631 44.1387 28.1953C43.8392 28.5329 43.398 28.7017 42.8099 28.7017C42.2326 28.7017 41.8023 28.5384 41.5191 28.2061C41.2359 27.8739 41.0943 27.3783 41.0943 26.7085V12.0041C41.0943 11.3288 41.2359 10.8224 41.5191 10.4956C41.8023 10.1634 42.2326 10 42.8099 10C43.3926 10 43.8392 10.1688 44.1387 10.5065C44.4382 10.8441 44.5907 11.3452 44.5907 12.0041V19.8083L48.1633 15.7783C48.5173 15.3644 48.806 15.0975 49.0292 14.9722C49.2525 14.847 49.5031 14.7871 49.7863 14.7871C50.2219 14.7871 50.6086 14.9396 50.9354 15.2391C51.2676 15.5386 51.431 15.8872 51.431 16.2847C51.431 16.6823 51.0933 17.2432 50.418 17.9785L48.5119 20.0044L51.6815 25.4504C51.932 25.8535 52.0954 26.1639 52.1771 26.3708C52.2533 26.5832 52.2969 26.7793 52.2969 26.9699C52.2969 27.4764 52.1335 27.8848 51.8122 28.2061C51.4909 28.5275 51.077 28.6909 50.5705 28.6909C50.1348 28.6909 49.7536 28.5983 49.4377 28.4076C49.1218 28.217 48.8441 27.9175 48.6153 27.5036L45.9577 22.7383L44.5962 24.2142V26.7139H44.5907ZM57.6885 17.5591C58.0534 16.6823 58.5054 16.0015 59.05 15.5114C59.5946 15.0213 60.1719 14.7762 60.7818 14.7762C61.3755 14.7762 61.8438 14.9396 62.1815 15.2718C62.5191 15.604 62.688 16.056 62.688 16.6333C62.688 16.9219 62.6389 17.1779 62.5464 17.4012C62.4538 17.6245 62.3067 17.8205 62.1052 17.9948C61.8765 18.1909 61.4626 18.3052 60.869 18.327C60.5204 18.3434 60.259 18.3706 60.0793 18.4033C59.3768 18.534 58.8485 18.8498 58.489 19.3509C58.1296 19.8519 57.9499 20.5218 57.9499 21.3714V26.7194C57.9499 27.3783 57.7974 27.8739 57.4979 28.2116C57.1983 28.5438 56.7463 28.7126 56.1418 28.7126C55.5482 28.7126 55.1016 28.5438 54.8021 28.2116C54.5025 27.8739 54.35 27.3783 54.35 26.7194V16.8076C54.35 16.1323 54.4971 15.6258 54.7912 15.2881C55.0853 14.9505 55.5155 14.7816 56.0982 14.7816C56.5993 14.7816 56.9914 14.9232 57.2746 15.201C57.5523 15.4787 57.6939 15.8708 57.6939 16.3773V17.5591H57.6885ZM69.5227 17.5863C68.5098 17.5863 67.7256 17.9458 67.1809 18.6701C66.6309 19.389 66.3586 20.4183 66.3586 21.7417C66.3586 23.076 66.6309 24.1053 67.1809 24.835C67.731 25.5648 68.5098 25.9243 69.5227 25.9243C70.5194 25.9243 71.2927 25.5648 71.8428 24.835C72.3928 24.1053 72.6651 23.076 72.6651 21.7417C72.6651 20.4129 72.3928 19.389 71.8428 18.6701C71.2927 17.9458 70.5194 17.5863 69.5227 17.5863ZM69.5227 14.5475C71.6358 14.5475 73.2969 15.1846 74.5113 16.4645C75.7258 17.7443 76.3358 19.4979 76.3358 21.7362C76.3358 23.98 75.7258 25.7445 74.5113 27.0189C73.2969 28.2987 71.6304 28.9359 69.5227 28.9359C67.4042 28.9359 65.7377 28.2987 64.5233 27.0189C63.3088 25.7391 62.7043 23.98 62.7043 21.7362C62.7043 19.5034 63.3088 17.7443 64.5233 16.4645C65.7377 15.1846 67.4042 14.5475 69.5227 14.5475Z" fill="#83889E" stroke="white" stroke-width="3.1779" stroke-miterlimit="2.6131"/>
<path d="M93.2061 26.1395C93.2061 26.8474 93.0428 27.3757 92.7215 27.7352C92.4001 28.0946 91.9209 28.2689 91.2837 28.2689C90.6411 28.2689 90.1564 28.0891 89.835 27.7352C89.5137 27.3757 89.3503 26.8474 89.3503 26.1395L89.4102 20.5899L82.6081 27.3921C82.1071 27.8931 81.6169 28.1545 81.1377 28.1817C80.6584 28.2089 80.1901 27.9966 79.7435 27.5445C79.286 27.0871 79.0736 26.6187 79.1009 26.1395C79.1281 25.6602 79.3895 25.1701 79.8851 24.669L86.1862 18.3679H81.0723C80.3644 18.3679 79.8361 18.2046 79.4767 17.8832C79.1172 17.5619 78.9375 17.0827 78.9375 16.4509C78.9375 15.8083 79.1172 15.3236 79.4767 15.0023C79.7707 14.7409 80.1792 14.5829 80.702 14.5339L80.8436 14.5176H81.0288H88.0324H90.8698C93.1789 14.5176 93.1789 16.8267 93.1789 16.8267L93.2061 26.1395Z" fill="#83889E"/>
<path d="M16.9139 16.5125C17.3768 15.8698 17.9269 15.3852 18.5695 15.0584C19.2121 14.7316 19.9364 14.5682 20.7316 14.5682C22.0931 14.5682 23.166 14.9604 23.9556 15.75C24.7453 16.5397 25.1374 17.6126 25.1374 18.9741V26.7129C25.1374 27.3828 24.9904 27.8838 24.6963 28.2106C24.4022 28.5428 23.9611 28.7062 23.3675 28.7062C22.7902 28.7062 22.349 28.5374 22.0441 28.1997C21.7391 27.8621 21.5866 27.3665 21.5866 26.7129V19.7039C21.5866 19.0612 21.4123 18.5602 21.0583 18.2008C20.7098 17.8413 20.2196 17.6616 19.5933 17.6616C18.8908 17.6616 18.3353 17.8903 17.9214 18.3424C17.5075 18.7944 17.3006 19.4207 17.3006 20.2104V26.7129C17.3006 27.3719 17.1535 27.8729 16.854 28.2052C16.5544 28.5428 16.1133 28.7062 15.5251 28.7062C14.937 28.7062 14.5013 28.5428 14.2126 28.2106C13.924 27.8838 13.777 27.3828 13.777 26.7129V19.7257C13.777 19.0721 13.6081 18.5711 13.2705 18.2171C12.9328 17.8631 12.4481 17.6834 11.8218 17.6834C11.1193 17.6834 10.5638 17.9121 10.1608 18.3641C9.75233 18.8162 9.55083 19.4425 9.55083 20.2321V26.7075C9.55083 27.3665 9.40378 27.8675 9.10425 28.1997C8.81016 28.5374 8.36359 28.7008 7.76997 28.7008C7.18724 28.7008 6.7461 28.5319 6.44657 28.1997C6.15249 27.8675 6 27.3665 6 26.7075V16.7902C6 16.1422 6.14704 15.6411 6.44113 15.2926C6.73522 14.944 7.15456 14.7697 7.69372 14.7697C8.20565 14.7697 8.60321 14.9113 8.89185 15.2C9.18049 15.4886 9.35476 15.9134 9.40923 16.4853C9.88848 15.8426 10.4385 15.3579 11.0539 15.0312C11.6748 14.7044 12.3719 14.541 13.1452 14.541C13.9948 14.541 14.7246 14.699 15.3236 15.0203C15.9445 15.3361 16.4673 15.8372 16.9139 16.5125Z" fill="#83889E"/>
<path fill-rule="evenodd" clip-rule="evenodd" d="M35.1573 21.8629C34.5637 22.1461 33.8829 22.3639 33.1205 22.5273C32.358 22.6852 31.9604 22.7724 31.9387 22.7778C31.3124 22.9575 30.8712 23.1863 30.6207 23.4586C30.3702 23.7309 30.2449 24.1066 30.2449 24.5804C30.2449 25.0924 30.4083 25.4899 30.7405 25.7731C31.0727 26.0563 31.5302 26.1979 32.1293 26.1979C33.0442 26.1979 33.7794 25.9202 34.3349 25.3647C34.8904 24.8092 35.1627 24.0685 35.1627 23.1372V21.8629H35.1573ZM38.6046 18.3502V25.9964C38.6046 26.2687 38.6264 26.5846 38.6645 26.9386C38.7081 27.2926 38.7244 27.5104 38.7244 27.5921C38.7244 28.0224 38.5883 28.36 38.316 28.6051C38.0437 28.8502 37.6679 28.97 37.1778 28.97C36.5133 28.97 36.0177 28.7957 35.7019 28.4526C35.386 28.1041 35.2226 27.5594 35.2117 26.8188C34.7597 27.5213 34.1606 28.055 33.4254 28.4199C32.6902 28.7848 31.8352 28.97 30.8603 28.97C29.5696 28.97 28.573 28.6051 27.8541 27.8699C27.1407 27.1346 26.7812 26.1108 26.7812 24.7874C26.7812 23.5511 27.0808 22.6035 27.6853 21.9446C28.2898 21.291 29.3137 20.8063 30.7569 20.5014C31.3124 20.387 32.0149 20.2781 32.8699 20.1746C33.725 20.0711 34.2805 19.9785 34.5364 19.8968C34.727 19.8315 34.8686 19.7117 34.9558 19.5374C35.0484 19.3631 35.0919 19.1453 35.0919 18.8839C35.0919 18.3393 34.9231 17.9526 34.5854 17.713C34.2478 17.4788 33.6814 17.359 32.8863 17.359C32.4724 17.359 32.0966 17.4189 31.7535 17.5333C31.4104 17.6476 31.1054 17.8164 30.844 18.0397C30.7514 18.1214 30.6153 18.263 30.4356 18.4591C29.8637 19.0745 29.3354 19.3849 28.8398 19.3849C28.4259 19.3849 28.0829 19.2433 27.8051 18.9601C27.5274 18.6769 27.3912 18.3284 27.3912 17.9145C27.3912 17.0159 27.9086 16.2316 28.9433 15.5563C29.9781 14.8865 31.2525 14.5488 32.761 14.5488C34.6399 14.5488 36.0831 14.8756 37.0852 15.5291C38.1036 16.1772 38.6046 17.1194 38.6046 18.3502Z" fill="#83889E"/>
<path d="M44.594 26.7139C44.594 27.3675 44.4415 27.8631 44.142 28.1953C43.8425 28.5329 43.4013 28.7017 42.8132 28.7017C42.2359 28.7017 41.8056 28.5384 41.5224 28.2061C41.2393 27.8739 41.0977 27.3783 41.0977 26.7085V12.0041C41.0977 11.3288 41.2393 10.8224 41.5224 10.4956C41.8056 10.1634 42.2359 10 42.8132 10C43.3959 10 43.8425 10.1688 44.142 10.5065C44.4415 10.8441 44.594 11.3452 44.594 12.0041V19.8083L48.1666 15.7783C48.5206 15.3644 48.8093 15.0975 49.0326 14.9722C49.2558 14.847 49.5064 14.7871 49.7896 14.7871C50.2253 14.7871 50.6119 14.9396 50.9387 15.2391C51.2709 15.5386 51.4343 15.8872 51.4343 16.2847C51.4343 16.6823 51.0966 17.2432 50.4213 17.9785L50.3832 18.0166L48.5152 20.0098L51.6848 25.4559C51.9353 25.8589 52.0987 26.1693 52.1804 26.3763C52.2566 26.5887 52.3002 26.7847 52.3002 26.9753C52.3002 27.4818 52.1368 27.8903 51.8155 28.2116C51.4942 28.5329 51.0803 28.6963 50.5738 28.6963C50.1381 28.6963 49.7569 28.6037 49.441 28.4131C49.1251 28.2225 48.8474 27.923 48.6187 27.5091L45.961 22.7438L44.5995 24.2196V26.7139H44.594Z" fill="#83889E"/>
<path d="M57.69 17.5603C58.0549 16.6835 58.5069 16.0027 59.0515 15.5126C59.5961 15.0224 60.1734 14.7773 60.7834 14.7773C61.377 14.7773 61.8453 14.9407 62.183 15.2729C62.5206 15.6051 62.6895 16.0572 62.6895 16.6344C62.6895 16.9231 62.6405 17.1791 62.5479 17.4023C62.4553 17.6256 62.3083 17.8217 62.1068 17.996C61.878 18.192 61.4641 18.3064 60.8705 18.3282C60.5219 18.3445 60.2605 18.3717 60.0808 18.4044C59.3783 18.5351 58.85 18.851 58.4906 19.352C58.1311 19.8531 57.9514 20.5229 57.9514 21.3725V26.7205C57.9514 27.3795 57.7989 27.8751 57.4994 28.2128C57.1998 28.545 56.7478 28.7138 56.1433 28.7138C55.5497 28.7138 55.1031 28.545 54.8036 28.2128C54.5041 27.8751 54.3516 27.3795 54.3516 26.7205V16.8087C54.3516 16.1334 54.4986 15.6269 54.7927 15.2893C55.0868 14.9516 55.517 14.7828 56.0998 14.7828C56.6008 14.7828 56.9929 14.9244 57.2761 15.2021C57.5539 15.4799 57.6954 15.872 57.6954 16.3785V16.4275V17.5603H57.69Z" fill="#83889E"/>
<path fill-rule="evenodd" clip-rule="evenodd" d="M69.5216 17.5877C68.5086 17.5877 67.7244 17.9472 67.1798 18.6715C66.6297 19.3904 66.3574 20.4197 66.3574 21.7431C66.3574 23.0773 66.6297 24.1066 67.1798 24.8364C67.7298 25.5662 68.5086 25.9256 69.5216 25.9256C70.5182 25.9256 71.2915 25.5662 71.8416 24.8364C72.3917 24.1066 72.6639 23.0773 72.6639 21.7431C72.6639 20.4142 72.3917 19.3904 71.8416 18.6715C71.2915 17.9472 70.5182 17.5877 69.5216 17.5877ZM69.5216 14.5488C71.6346 14.5488 73.2957 15.186 74.5102 16.4658C75.7246 17.7457 76.3346 19.4993 76.3346 21.7376C76.3346 23.9814 75.7246 25.7459 74.5102 27.0203C73.2957 28.3001 71.6292 28.9373 69.5216 28.9373C67.4031 28.9373 65.7366 28.3001 64.5221 27.0203C63.3076 25.7405 62.7031 23.9814 62.7031 21.7376C62.7031 19.5047 63.3076 17.7457 64.5221 16.4658C65.7366 15.186 67.4031 14.5488 69.5216 14.5488Z" fill="#83889E"/>
</svg>
