<svg width="101" height="32" viewBox="0 0 101 32" fill="none" xmlns="http://www.w3.org/2000/svg">
<path d="M3.80808 31.1303H0V30.9833L0.602812 30.3804C0.74984 30.2334 0.823353 30.0668 0.823353 29.8806V20.3676H0.970381L8.17495 26.8664V22.0879C8.17495 21.9016 8.10143 21.7349 7.9544 21.588L7.35159 20.9852V20.8381H11.1597V20.9852L10.5569 21.588C10.4099 21.735 10.3364 21.9017 10.3364 22.0879V31.5273H10.1894L2.98473 25.0138V29.8805C2.98473 30.0667 3.05824 30.2334 3.20527 30.3804L3.80808 30.9832V31.1303ZM62.4713 31.4537H62.3242L59.3982 25.646C59.0649 24.9991 58.6925 24.5286 58.2808 24.2345V24.0727H60.9861L62.4418 27.4839H62.4713L63.7504 24.0727H66.4999V24.2345C66.0785 24.5285 65.706 24.9991 65.3824 25.646L62.4713 31.4537ZM24.8179 29.8879C23.7985 28.9223 23.2888 27.6309 23.2888 26.0136C23.2888 24.3864 23.8034 23.0876 24.8327 22.1173C25.862 21.1469 27.1656 20.6616 28.7438 20.6616C29.0966 20.6616 29.5279 20.6935 30.0376 20.7572C30.5474 20.821 30.8659 20.8528 30.9933 20.8528C31.3658 20.8528 31.7089 20.7302 32.0226 20.4852L32.1696 20.544L31.2874 24.0287L31.1257 23.9846C31.0179 23.6121 30.7753 23.2886 30.3979 23.0142C30.0205 22.7398 29.5182 22.6025 28.8909 22.6025C27.9989 22.6025 27.2613 22.9138 26.6781 23.5362C26.0949 24.1586 25.8032 24.9894 25.8032 26.0284C25.8032 27.0381 26.0777 27.8541 26.6266 28.4765C27.1755 29.099 27.8959 29.4102 28.788 29.4102C29.827 29.4102 30.6454 29.0034 31.2434 28.1898L32.6255 29.7925C31.6649 30.8217 30.3564 31.3364 28.6997 31.3364C27.1313 31.3363 25.8373 30.8535 24.8179 29.8879ZM96.1693 31.1305H93.1997V30.1747C93.0228 30.5179 92.7384 30.7972 92.3466 31.0128C91.9548 31.2285 91.4988 31.3363 90.9793 31.3363C90.3226 31.3363 89.7785 31.1474 89.3471 30.7701C88.9157 30.3927 88.7 29.8953 88.7 29.2777C88.7 28.5034 88.9822 27.9251 89.5456 27.5428C90.1091 27.1605 90.989 26.9596 92.1847 26.9399C92.5571 26.9301 92.8123 26.8836 92.9497 26.8003C93.087 26.717 93.1549 26.5724 93.1549 26.3665C93.1549 26.1607 93.0497 25.9891 92.8392 25.8519C92.6287 25.7147 92.3078 25.6461 91.8764 25.6461C91.2197 25.6461 90.6218 25.8912 90.0823 26.3813L88.9351 25.0286C89.6613 24.3032 90.7144 23.9406 92.0966 23.9406C93.2139 23.9406 94.0348 24.166 94.5595 24.6169C95.0842 25.0678 95.3461 25.7539 95.3461 26.6754V29.7043C95.3461 30.0081 95.4193 30.2336 95.567 30.3806L96.1693 30.9835V31.1305ZM68.9845 28.2339C69.0335 28.6064 69.2148 28.92 69.5285 29.1748C69.842 29.4297 70.2586 29.5572 70.7782 29.5572C71.435 29.5572 71.9397 29.3611 72.2927 28.969L73.5131 30.4099C72.8465 31.0274 71.8712 31.3363 70.5871 31.3363C69.4009 31.3363 68.46 31.0103 67.7641 30.3584C67.0681 29.7066 66.7201 28.8269 66.7201 27.7192C66.7201 26.6018 67.0633 25.6926 67.7494 24.9918C68.4355 24.2909 69.3667 23.9405 70.5429 23.9405C71.68 23.9405 72.5328 24.2713 73.1013 24.933C73.6699 25.5946 73.9542 26.4841 73.9542 27.6016C73.9542 27.8271 73.9442 28.0378 73.9247 28.2339H68.9845ZM81.2464 30.3804L82.2756 28.8808C82.9324 29.4198 83.7213 29.6894 84.6422 29.6894C85.2699 29.6894 85.5834 29.4933 85.5834 29.1013C85.5834 28.915 85.5028 28.7729 85.3408 28.6749C85.1796 28.5768 84.9661 28.5083 84.7012 28.469C84.437 28.4298 84.1377 28.3807 83.8041 28.322C82.3637 28.077 81.6427 27.3858 81.6427 26.2488C81.6427 25.4352 81.9301 24.8471 82.5033 24.4844C83.0764 24.1217 83.8041 23.9404 84.6863 23.9404C85.0296 23.9404 85.3901 23.9723 85.767 24.0359C86.1446 24.0997 86.3969 24.1315 86.5245 24.1315C86.8476 24.1315 87.1716 24.009 87.4947 23.764L87.6417 23.8228L86.9506 26.5135L86.8036 26.4694C86.5096 25.8421 85.8483 25.5284 84.8191 25.5284C84.2012 25.5284 83.8929 25.7097 83.8929 26.0724C83.8929 26.239 83.9683 26.3714 84.1206 26.4694C84.2728 26.5673 84.4758 26.6335 84.7311 26.6678C84.9855 26.7022 85.2751 26.7487 85.5983 26.8075C86.2357 26.9153 86.767 27.131 87.1939 27.4545C87.6201 27.778 87.8328 28.2485 87.8328 28.866C87.8328 29.6501 87.5365 30.2579 86.9432 30.6892C86.3506 31.1205 85.5349 31.3362 84.4952 31.3362C83.104 31.3363 82.0204 31.0176 81.2464 30.3804ZM35.5067 30.2481C34.7029 29.5227 34.301 28.469 34.301 27.0869V22.0879C34.301 21.9016 34.2274 21.7349 34.0804 21.588L33.4776 20.9852V20.8381H37.4475V20.9852L36.8446 21.588C36.6976 21.735 36.6241 21.9017 36.6241 22.0879V27.1458C36.6241 27.8907 36.8054 28.4494 37.1681 28.8219C37.5308 29.1944 38.0503 29.3806 38.7266 29.3806C39.3932 29.3806 39.9053 29.192 40.2631 28.8146C40.6209 28.4371 40.7998 27.8809 40.7998 27.1458V22.0879C40.7998 21.9016 40.7263 21.7349 40.5793 21.588L39.9764 20.9852V20.8381H43.9757V20.9852L43.3728 21.588C43.2258 21.735 43.1523 21.9017 43.1523 22.0879V27.0869C43.1523 28.4691 42.7479 29.5227 41.9393 30.2481C41.1306 30.9735 40.0597 31.3362 38.7266 31.3362C37.3838 31.3363 36.3105 30.9735 35.5067 30.2481ZM48.9007 31.1303H45.0484V30.9833H45.0485L45.6513 30.3804C45.7984 30.2334 45.8719 30.008 45.8719 29.7041V25.499C45.8719 25.1951 45.7984 24.9697 45.6513 24.8226L45.0485 24.2198V24.0728H48.0185V25.3372C48.1851 24.9353 48.4915 24.6021 48.9375 24.3375C49.3835 24.0728 49.8662 23.9405 50.3858 23.9405C51.1503 23.9405 51.7433 24.1855 52.1649 24.6756C52.5864 25.1657 52.7971 25.8519 52.7971 26.7341V29.7042C52.7971 30.008 52.8706 30.2335 53.0176 30.3805L53.6205 30.9834V31.1304H50.5916V27.2193C50.5916 26.7977 50.4936 26.462 50.2975 26.2121C50.1016 25.9621 49.8124 25.8371 49.4301 25.8371C48.9791 25.8371 48.641 25.9768 48.4155 26.2562C48.19 26.5356 48.0774 26.8958 48.0774 27.3369V29.7041C48.0774 30.0079 48.1509 30.2334 48.2979 30.3804L48.9007 30.9833V31.1303ZM58.134 31.1304H54.2818V30.9833L54.8846 30.3804C55.0317 30.2334 55.1051 30.008 55.1051 29.7041V25.499C55.1051 25.1951 55.0317 24.9697 54.8846 24.8226L54.2818 24.2198V24.0728H57.3106V29.7042C57.3106 30.008 57.384 30.2335 57.5311 30.3805L58.134 30.9834V31.1304ZM18.2313 31.1303H12.2177V30.9833L12.8206 30.3804C12.9676 30.2334 13.0411 30.0668 13.0411 29.8806V22.0879C13.0411 21.9016 12.9676 21.7349 12.8206 21.588L12.2177 20.9852V20.8381H18.2901C19.3488 20.8381 20.1599 21.0783 20.7235 21.5586C21.2872 22.0388 21.569 22.676 21.569 23.47C21.569 24.6658 20.9515 25.4157 19.7164 25.7196V25.749C21.2357 26.0137 21.9954 26.8517 21.9954 28.2632C21.9954 29.2042 21.6645 29.9173 21.0029 30.4025C20.3413 30.8877 19.4175 31.1303 18.2313 31.1303ZM100.624 31.1303H96.7716V30.9833L97.3747 30.3804C97.5217 30.2334 97.5948 30.008 97.5948 29.7041V21.4262C97.5948 21.1223 97.5217 20.8969 97.3747 20.7498L96.7716 20.147V20H99.801V29.7041C99.801 30.0079 99.8741 30.2334 100.021 30.3804L100.624 30.9833V31.1303ZM78.8201 31.1303H74.9683V30.9833L75.5713 30.3804C75.7183 30.2334 75.7915 30.008 75.7915 29.7041V25.499C75.7915 25.1951 75.7183 24.9697 75.5713 24.8226L74.9683 24.2198V24.0728H77.9379V25.499C78.1051 25.048 78.379 24.6756 78.7619 24.3816C79.144 24.0875 79.5851 23.9405 80.0851 23.9405C80.4471 23.9405 80.7561 24.0091 81.0113 24.1463L80.4374 26.3519C80.1239 26.0774 79.7709 25.9401 79.3791 25.9401C78.9477 25.9401 78.6096 26.0822 78.3648 26.3665C78.1193 26.6509 77.9969 27.0527 77.9969 27.5722V29.7041C77.9969 30.0079 78.07 30.2334 78.2171 30.3804L78.8201 30.9833V31.1303ZM92.7728 29.388C93.028 29.1283 93.1549 28.8171 93.1549 28.4544V27.9691C93.028 28.0181 92.719 28.0573 92.2294 28.0867C91.3465 28.1357 90.9062 28.4397 90.9062 28.9984C90.9062 29.2238 90.9793 29.4101 91.1264 29.5571C91.2734 29.7041 91.4936 29.7776 91.7884 29.7776C92.1899 29.7777 92.5183 29.6478 92.7728 29.388ZM17.952 26.7047H15.3937V29.2483H17.952C19.0597 29.2483 19.6135 28.8121 19.6135 27.9397C19.6135 27.1164 19.0597 26.7047 17.952 26.7047ZM69.3814 25.9842C69.1266 26.2489 68.9845 26.5724 68.955 26.9546H71.7192C71.6995 26.5527 71.5771 26.2244 71.3516 25.9695C71.1262 25.7147 70.8076 25.5873 70.3959 25.5873C69.9743 25.5872 69.6362 25.7196 69.3814 25.9842ZM17.9961 22.6907H15.3936V24.9109H17.9961C18.8293 24.9109 19.2459 24.5481 19.2459 23.8228C19.2459 23.4797 19.1405 23.2053 18.9297 22.9994C18.719 22.7936 18.4078 22.6907 17.9961 22.6907ZM55.2742 22.6613C55.0145 22.4162 54.8846 22.1123 54.8846 21.7497C54.8846 21.3871 55.0144 21.0832 55.2742 20.8381C55.534 20.593 55.8402 20.4706 56.1932 20.4706C56.5461 20.4706 56.8523 20.5931 57.1121 20.8381C57.3719 21.0832 57.5018 21.3871 57.5018 21.7497C57.5018 22.1123 57.3719 22.4162 57.1121 22.6613C56.8523 22.9063 56.5461 23.0288 56.1932 23.0288C55.8402 23.0288 55.534 22.9063 55.2742 22.6613Z" fill="#83889E"/>
</svg>
