<svg width="88" height="27" viewBox="0 0 88 27" fill="none" xmlns="http://www.w3.org/2000/svg">
<path fill-rule="evenodd" clip-rule="evenodd" d="M53.8873 12.5381C53.5925 12.6336 53.1895 12.7147 52.6889 12.7772C52.4503 12.8084 52.1851 12.8241 51.8744 12.8241C51.3527 12.8241 50.7875 12.7825 50.2403 12.7398L50.2214 12.7391C49.7143 12.7008 49.2347 12.6648 48.7744 12.6648C48.4457 12.6648 48.1444 12.6842 47.8553 12.7212C46.9955 12.828 46.3175 13.098 46.3175 13.098L46.3248 13.0281C46.4914 11.3037 47.9403 9.83159 49.6935 9.59875C49.8552 9.57984 50.0217 9.56911 50.1883 9.56911C51.8401 9.56911 53.4421 10.8214 53.9181 12.4848L53.9301 12.5279L53.8873 12.5381ZM55.9055 13.2702L55.905 13.2467C55.8975 13.1358 55.8764 12.9564 55.8531 12.7636C55.8079 12.4138 55.7315 12.0693 55.6259 11.7372C54.8285 9.22215 52.6942 7.5991 50.1883 7.5991C49.9383 7.5991 49.6799 7.61494 49.4251 7.64969C46.2115 8.06325 44.0289 10.9757 44.4539 14.28C44.8404 17.2715 47.2473 19.3209 50.1764 19.3209C50.4235 19.3209 50.6809 19.3037 50.9408 19.2725C52.5019 19.0742 53.8735 18.4204 54.9011 17.1489C54.959 17.0765 54.9876 16.984 54.9769 16.901C54.9675 16.8274 54.9244 16.7574 54.8468 16.7012C54.6744 16.5772 54.059 16.2787 53.7241 16.1192L53.5024 16.0099C53.4009 15.9576 53.3281 15.9341 53.2619 15.9341C53.1806 15.9341 53.1036 15.9756 53.0284 16.0669C52.366 16.837 51.5276 17.2415 50.671 17.3539C50.5012 17.3747 50.3365 17.3858 50.1764 17.3858C48.6153 17.3858 47.0398 16.3405 46.5825 14.9058L46.5711 14.8682L46.6046 14.852C46.6857 14.8118 47.4162 14.4716 48.4988 14.4716C48.6331 14.4716 48.7698 14.4771 48.9034 14.489C49.2139 14.5135 49.5257 14.5539 49.8546 14.5955C50.4617 14.6757 51.0912 14.7588 51.826 14.7588C52.2789 14.7588 52.7242 14.7261 53.1781 14.6629C54.965 14.3185 55.6739 13.8174 55.6795 13.8128C55.9318 13.6496 55.9224 13.5144 55.9055 13.2702ZM83.8977 8.25759C83.8977 8.10753 83.7745 7.98677 83.626 7.98677H82.147C81.9999 7.98677 81.8779 8.10753 81.8779 8.25759V18.7729C81.8779 18.9215 81.9999 19.0443 82.147 19.0443H83.626C83.7745 19.0443 83.8977 18.9215 83.8977 18.7729V8.25759ZM82.8878 4.23633C82.1527 4.23633 81.5528 4.83656 81.5528 5.57289C81.5528 6.30751 82.1527 6.90638 82.8878 6.90638C83.6248 6.90638 84.2226 6.30751 84.2226 5.57289C84.2226 4.83656 83.6248 4.23633 82.8878 4.23633ZM63.3107 9.59619C65.4066 9.59619 67.0489 11.3211 67.0489 13.5245C67.0489 15.7409 65.4905 17.4108 63.4234 17.4108C62.3797 17.4108 61.4122 17.0364 60.7043 16.3584C59.974 15.6612 59.5735 14.6767 59.5735 13.5904C59.5735 11.3879 61.2497 9.59619 63.3107 9.59619ZM63.2451 19.3244C63.3384 19.3284 63.4354 19.3321 63.5296 19.3321C65.049 19.3321 66.4611 18.7455 67.5103 17.6883C68.5743 16.6105 69.1585 15.1325 69.1585 13.5245C69.1585 10.202 66.6007 7.5991 63.3345 7.5991C60.6767 7.5991 58.4332 9.34922 57.7471 11.9527C57.6304 12.3947 57.5097 13.5219 57.5097 14.6461V22.8967C57.5097 23.0471 57.6304 23.1696 57.7808 23.1696H59.2477C59.3993 23.1696 59.5221 23.0456 59.5221 22.8945L59.5209 17.6971L59.5979 17.7719C60.3184 18.472 61.6546 19.2498 63.2451 19.3244ZM36.9552 9.59619C39.0492 9.59619 40.6922 11.3211 40.6922 13.5245C40.6922 15.7409 39.1344 17.4108 37.0656 17.4108C36.0193 17.4108 35.0562 17.0364 34.3489 16.3584C33.6173 15.6612 33.2148 14.6767 33.2148 13.5904C33.2148 11.3879 34.8927 9.59619 36.9552 9.59619ZM36.8902 19.3244C36.9837 19.3284 37.0799 19.3321 37.1724 19.3321C38.6936 19.3321 40.1061 18.7455 41.1536 17.6883C42.2178 16.6105 42.8039 15.1325 42.8039 13.5245C42.8039 10.202 40.2439 7.5991 36.9772 7.5991C34.3204 7.5991 32.0745 9.34922 31.3901 11.9527C31.2712 12.3947 31.1523 13.5219 31.1523 14.6461V22.8967C31.1523 23.0471 31.2743 23.1696 31.4209 23.1696H32.8922C33.0431 23.1696 33.166 23.0456 33.166 22.8945L33.1636 17.6971L33.2378 17.7719C33.9587 18.472 35.2949 19.2498 36.8902 19.3244ZM70.5717 17.4825C71.8489 18.6513 73.244 19.319 75.0554 19.319H75.1129C78.2394 19.2987 79.6362 17.5898 79.6362 15.9061C79.6362 13.5773 77.439 12.9407 76.7659 12.7995C76.5499 12.7575 76.3252 12.7152 76.095 12.6694C75.5508 12.5647 74.9858 12.4565 74.4724 12.3146C74.1125 12.2157 72.9391 11.8249 72.9391 10.9476C72.9391 9.98181 74.011 9.46112 75.0178 9.46112C75.8636 9.46112 76.5688 9.60352 77.4712 10.3082C77.5417 10.3637 77.6407 10.4272 77.7614 10.4272C77.8507 10.4272 77.9362 10.3964 78.0282 10.3306C78.278 10.1465 78.7352 9.7609 79.0372 9.45891C79.1084 9.38686 79.1416 9.308 79.1373 9.22556C79.1304 9.09747 79.0353 8.99272 78.9864 8.95236C77.7797 7.99512 76.6184 7.60336 74.9808 7.5991H74.9689C72.6266 7.5991 70.8582 9.1048 70.8582 11.101C70.8582 12.6829 72.1587 13.8063 74.5159 14.2693L75.9919 14.5522C76.9621 14.7304 77.5075 15.2456 77.4886 15.967C77.4712 16.6701 76.6088 17.3982 75.1921 17.3982C74.0355 17.3982 73.0168 16.9467 72.1633 16.172L72.1509 16.1598C72.0906 16.1051 72.0185 16.0385 71.9216 16.0385C71.8538 16.0385 71.7819 16.07 71.7044 16.1305C71.6155 16.2027 70.6298 16.9821 70.5246 17.0923C70.4764 17.1441 70.4537 17.1988 70.4547 17.2562C70.4571 17.3473 70.5172 17.4325 70.5717 17.4825ZM86.0542 17.7269C86.1562 17.7269 86.2138 17.8065 86.2138 17.8935C86.2138 17.9761 86.1562 18.0552 86.0479 18.0552H85.8198V17.7269H86.0542ZM86.1826 18.273C86.3693 18.226 86.4493 18.0591 86.4493 17.8935C86.4493 17.6919 86.3223 17.4917 86.0542 17.4917H85.5796V18.7131H85.8198V18.2911H85.8997L86.2027 18.7131H86.4948L86.1826 18.273ZM85.9959 19.1047C86.5537 19.1047 86.9928 18.6556 86.9928 18.0971C86.9928 17.5398 86.5537 17.0863 85.9959 17.0863C85.4388 17.0863 84.9985 17.5398 84.9985 18.0971C84.9985 18.6556 85.4388 19.1047 85.9959 19.1047ZM85.9959 16.8709C86.6714 16.8709 87.2083 17.4212 87.2083 18.0971C87.2083 18.7729 86.6714 19.319 85.9959 19.319C85.3214 19.319 84.7874 18.7729 84.7874 18.0971C84.7874 17.4212 85.3214 16.8709 85.9959 16.8709Z" fill="#83889E"/>
<path fill-rule="evenodd" clip-rule="evenodd" d="M22.9512 22.9516C17.7019 28.2021 9.18776 28.2014 3.93878 22.9516C-1.31293 17.7004 -1.31293 9.18693 3.93878 3.93744C9.18895 -1.31257 17.7019 -1.31256 22.9502 3.93795C28.2019 9.18676 28.2019 17.7002 22.9512 22.9514" fill="white"/>
<path fill-rule="evenodd" clip-rule="evenodd" d="M23.9079 6.6582C24.1598 7.47407 24.2978 8.34001 24.2978 9.23781C24.2978 12.1344 22.8737 14.6815 20.7076 16.2774C16.941 19.0516 11.4512 19.0553 3.87109 21.4438C6.15893 24.1783 9.59682 25.9187 13.4415 25.9187C20.3321 25.9187 25.9176 20.3331 25.9176 13.4429C25.9176 10.9416 25.1772 8.61288 23.9079 6.6582Z" fill="#83889E"/>
<path fill-rule="evenodd" clip-rule="evenodd" d="M20.9262 3.46073C18.8414 1.89372 16.2514 0.966797 13.4444 0.966797C6.55413 0.966797 0.96875 6.55354 0.96875 13.4429C0.96875 16.2162 1.87353 18.7776 3.40375 20.8486C11.7946 18.4054 18.42 11.8235 20.9262 3.46073Z" fill="#9B9FB1"/>
</svg>
